<?xml version="1.0" encoding="utf-8"?>
<!-- Generator: Adobe Illustrator 25.0.0, SVG Export Plug-In . SVG Version: 6.00 Build 0)  -->
<svg version="1.1" id="Layer_1" xmlns="http://www.w3.org/2000/svg" xmlns:xlink="http://www.w3.org/1999/xlink" x="0px" y="0px"
	 viewBox="0 0 47.5 46.9" style="enable-background:new 0 0 47.5 46.9;" xml:space="preserve">
<style type="text/css">
	.st0{fill:#FFFFFF;}
</style>
<g>
	<path class="st0" d="M30.3,39.4c0,0.8-0.1,1.5-0.4,2.2c-0.9,2.5-3.3,4.2-6.1,4.2h0c-12.3,0-22.4-10-22.4-22.4
		c0-10.4,7.1-19.1,16.7-21.6c-1.1,1.1-1.9,2.6-2.2,4.3c-6.6,3-11.2,9.7-11.2,17.4c0,8.4,5.5,15.6,13.1,18.1
		c-0.2-0.7-0.4-1.4-0.4-2.2c0-1,0.2-2,0.7-2.9l0,0c1,0.4,2,0.8,3.1,1c-0.4,0.5-0.6,1.2-0.6,1.9c0,0.5,0.1,1,0.3,1.4c0,0,0,0,0,0
		c0.4,0.8,1.2,1.5,2.1,1.7c0.3,0.1,0.6,0.1,0.9,0.1h0c0.3,0,0.6,0,0.9-0.1c0.3-0.1,0.6-0.2,0.9-0.4c0.9-0.6,1.5-1.6,1.5-2.8
		c0-1.8-1.5-3.3-3.3-3.3h0c-1.7,0-3.3-0.3-4.8-1l0,0c-4.6-1.9-7.8-6.4-7.8-11.7c0-4.7,2.6-8.8,6.3-11c0.7,0.9,1.6,1.7,2.7,2.2
		c-3.4,1.4-5.8,4.8-5.8,8.8c0,5.2,4.2,9.5,9.4,9.5c0,0,0.1,0,0.1,0v0h0C27.4,32.9,30.3,35.8,30.3,39.4z"/>
	<g>
		<path class="st0" d="M32.8,20.1L32.8,20.1h3.3h6.6h1.7H46c0-0.3-0.1-0.6-0.2-0.9c-2-10.2-11-18-21.7-18.1c0,0,0,0,0,0c0,0,0,0,0,0
			c0,0,0,0,0,0h0c-0.1,0-0.1,0-0.2,0h0c-0.1,0-0.1,0-0.2,0h0c0,0,0,0,0,0c0,0,0,0,0,0c0,0,0,0,0,0c-2.7,0.1-4.9,1.8-5.8,4.2
			c-0.2,0.7-0.4,1.4-0.4,2.2c0,3.5,2.9,6.4,6.4,6.4v0h0C28,13.9,31.4,16.5,32.8,20.1z M28.7,11.7L28.7,11.7c-0.3-0.1-0.7-0.3-1-0.4
			c0,0-0.1,0-0.1,0c0,0-0.1,0-0.1,0c0,0-0.1,0-0.1,0c-0.1,0-0.1,0-0.2,0c0,0-0.1,0-0.1,0c-0.1,0-0.1,0-0.1,0c-0.1,0-0.1,0-0.2,0
			c-0.1,0-0.2,0-0.3-0.1c-0.1,0-0.1,0-0.2,0c-0.1,0-0.1,0-0.2,0c0,0-0.1,0-0.1,0c-0.1,0-0.1,0-0.2,0c0,0-0.1,0-0.1,0c0,0,0,0-0.1,0
			c-0.1,0-0.2,0-0.3,0c0,0-0.1,0-0.1,0c-0.1,0-0.1,0-0.2,0c-0.1,0-0.2,0-0.3,0c-0.1,0-0.2,0-0.3,0c-0.1,0-0.1,0-0.2,0
			c0,0-0.1,0-0.1,0c0,0,0,0,0,0c0,0-0.1,0-0.1,0h-0.1v0c-1.8,0-3.3-1.5-3.3-3.3c0-1.3,0.8-2.5,2-3c0.1-0.1,0.3-0.1,0.4-0.1
			c0,0,0,0,0,0c0.3-0.1,0.6-0.1,0.9-0.1h0c0.3,0,0.6,0,0.9,0.1c0,0,0,0,0,0C25.2,4.5,25.7,4.7,26,5c0.7,0.6,1.1,1.5,1.1,2.5
			c0,0.7-0.2,1.4-0.6,1.9c1.1,0.2,2.1,0.5,3.1,1l0,0c0.4-0.9,0.7-1.8,0.7-2.9c0-0.8-0.1-1.5-0.4-2.2c5.7,1.9,10.2,6.4,12.1,12.1h-7
			C33.7,14.9,31.4,12.9,28.7,11.7L28.7,11.7z"/>
		<path class="st0" d="M42.7,26.8h-6.6h-3.3h0c-0.9,2.5-2.8,4.4-5.2,5.4c1,0.5,2,1.3,2.7,2.2c2-1.2,3.7-2.9,4.8-5h7
			c-1.7,5.1-5.4,9.2-10.2,11.4c-0.3,1.6-1.1,3.1-2.2,4.3c8.3-2.2,14.7-8.9,16.3-17.4c0.1-0.3,0.1-0.6,0.2-0.9h-1.6H42.7z"/>
	</g>
</g>
</svg>
