<?xml version="1.0" encoding="utf-8"?>
<!-- Generator: Adobe Illustrator 25.0.0, SVG Export Plug-In . SVG Version: 6.00 Build 0)  -->
<svg version="1.1" id="Layer_1" xmlns="http://www.w3.org/2000/svg" xmlns:xlink="http://www.w3.org/1999/xlink" x="0px" y="0px"
	 viewBox="0 0 213.4 46.9" style="enable-background:new 0 0 213.4 46.9;" xml:space="preserve">
<style type="text/css">
	.st0{fill:#FFFFFF;}
</style>
<g>
	<g>
		<path class="st0" d="M62.9,12.3c3.9,0,7.3,1.8,9.1,4.7l-4.2,2.4c-1.1-1.6-2.8-2.6-4.9-2.6c-3.5,0-5.9,2.7-5.9,6.2
			c0,1.8,0.5,3.2,1.6,4.4c1.1,1.2,2.5,1.8,4.3,1.8c2.1,0,3.9-0.9,4.9-2.6l4.2,2.4c-1.9,2.9-5.2,4.7-9.1,4.7
			c-6.1,0.1-11-4.7-10.9-10.8C51.9,17,56.7,12.2,62.9,12.3z"/>
		<path class="st0" d="M94.3,12.8l-8.9,20.9c-1.3,3.1-2.7,5.2-4.2,6.4c-1.5,1.2-3.2,1.8-5,1.8c-1.6,0-3.4-0.4-4.6-1l1.2-4.2
			c1,0.4,2.1,0.6,3.1,0.6c2.1,0,3.5-1,4.6-3.7l0.2-0.4l-9.1-20.5H77L83,27.1l5.8-14.3H94.3z"/>
		<path class="st0" d="M107.3,33.8c-2.9,0-5.3-1.2-6.7-3.5v2.9h-5.2V4.7h5.2v11c1.4-2.2,3.8-3.4,6.7-3.4c5.7-0.1,10.1,4.8,10,10.8
			C117.4,29,113.1,33.9,107.3,33.8z M110.7,18.6c-1.1-1.2-2.5-1.8-4.2-1.8c-3.4,0-5.8,2.5-5.8,6.2c0,3.8,2.4,6.2,5.8,6.2
			c3.5,0,5.9-2.7,5.9-6.2C112.4,21.3,111.8,19.8,110.7,18.6z"/>
		<path class="st0" d="M123.6,24.9c0.6,2.9,3,4.5,6.2,4.5c2.2,0,4.3-1,5.3-2.6l4,2.5c-1.8,2.7-5.4,4.5-9.3,4.5
			c-6.6,0-11.2-4.6-11.2-10.8c0-6.1,4.5-10.8,10.6-10.8c6.1,0,10.6,4.2,10.6,10.3c0,0.6,0,1.4-0.1,2.3H123.6z M134.7,21.2
			c-0.3-2.7-2.4-4.6-5.6-4.6c-2.7,0-5,1.7-5.6,4.6H134.7z"/>
		<path class="st0" d="M155.3,17.5c-0.7-0.2-1.6-0.3-2.4-0.3c-3.4,0-5.7,2.4-5.7,5.8v10.3H142V12.8h5.2v3.4c1-2.3,3.2-3.8,5.8-3.8
			c1,0,1.7,0.1,2.3,0.3V17.5z"/>
		<path class="st0" d="M162.1,33.3h-5.2V4.7h5.2V33.3z"/>
		<path class="st0" d="M168,3.9c1.8,0,3.2,1.4,3.2,3.1c0,1.8-1.4,3.1-3.2,3.1s-3.2-1.3-3.2-3.1C164.7,5.3,166.1,3.9,168,3.9z
			 M170.6,33.3h-5.2V12.8h5.2V33.3z"/>
		<path class="st0" d="M181.5,12.8h7v4.5h-7v16h-5.2v-16H172v-4.5h4.4V11c0-5.6,2.7-8.5,7.7-8.5c1.9,0,3.8,0.5,5,1.3L188,7.9
			c-1-0.5-2-0.8-3.2-0.8c-2.2,0-3.2,1.3-3.2,4V12.8z"/>
		<path class="st0" d="M193.8,24.9c0.6,2.9,3,4.5,6.2,4.5c2.2,0,4.3-1,5.3-2.6l4,2.5c-1.8,2.7-5.4,4.5-9.3,4.5
			c-6.6,0-11.2-4.6-11.2-10.8c0-6.1,4.5-10.8,10.6-10.8c6.1,0,10.6,4.2,10.6,10.3c0,0.6,0,1.4-0.1,2.3H193.8z M205,21.2
			c-0.3-2.7-2.4-4.6-5.6-4.6c-2.7,0-5,1.7-5.6,4.6H205z"/>
	</g>
	<g>
		<path class="st0" d="M28.8,39.4c0,0.8-0.1,1.5-0.4,2.2c-0.9,2.5-3.3,4.2-6.1,4.2h0C10,45.8,0,35.8,0,23.4C0,13.1,7.1,4.3,16.7,1.8
			c-1.1,1.1-1.9,2.6-2.2,4.3c-6.6,3-11.2,9.7-11.2,17.4c0,8.4,5.5,15.6,13.1,18.1c-0.2-0.7-0.4-1.4-0.4-2.2c0-1,0.2-2,0.7-2.9l0,0
			c1,0.4,2,0.8,3.1,1c-0.4,0.5-0.6,1.2-0.6,1.9c0,0.5,0.1,1,0.3,1.4c0,0,0,0,0,0c0.4,0.8,1.2,1.5,2.1,1.7c0.3,0.1,0.6,0.1,0.9,0.1h0
			c0.3,0,0.6,0,0.9-0.1c0.3-0.1,0.6-0.2,0.9-0.4c0.9-0.6,1.5-1.6,1.5-2.8c0-1.8-1.5-3.3-3.3-3.3h0c-1.7,0-3.3-0.3-4.8-1l0,0
			c-4.6-1.9-7.8-6.4-7.8-11.7c0-4.7,2.6-8.8,6.3-11c0.7,0.9,1.6,1.7,2.7,2.2c-3.4,1.4-5.8,4.8-5.8,8.8c0,5.2,4.2,9.5,9.4,9.5
			c0,0,0.1,0,0.1,0v0h0C25.9,32.9,28.8,35.8,28.8,39.4z"/>
		<g>
			<path class="st0" d="M31.3,20.1L31.3,20.1h3.3h6.6h1.7h1.6c0-0.3-0.1-0.6-0.2-0.9c-2-10.2-11-18-21.7-18.1c0,0,0,0,0,0
				c0,0,0,0,0,0c0,0,0,0,0,0h0c-0.1,0-0.1,0-0.2,0h0c-0.1,0-0.1,0-0.2,0h0c0,0,0,0,0,0c0,0,0,0,0,0c0,0,0,0,0,0
				c-2.7,0.1-4.9,1.8-5.8,4.2c-0.2,0.7-0.4,1.4-0.4,2.2c0,3.5,2.9,6.4,6.4,6.4v0h0C26.4,13.9,29.9,16.5,31.3,20.1z M27.2,11.7
				L27.2,11.7c-0.3-0.1-0.7-0.3-1-0.4c0,0-0.1,0-0.1,0c0,0-0.1,0-0.1,0c0,0-0.1,0-0.1,0c-0.1,0-0.1,0-0.2,0c0,0-0.1,0-0.1,0
				c-0.1,0-0.1,0-0.1,0c-0.1,0-0.1,0-0.2,0c-0.1,0-0.2,0-0.3-0.1c-0.1,0-0.1,0-0.2,0c-0.1,0-0.1,0-0.2,0c0,0-0.1,0-0.1,0
				c-0.1,0-0.1,0-0.2,0c0,0-0.1,0-0.1,0c0,0,0,0-0.1,0c-0.1,0-0.2,0-0.3,0c0,0-0.1,0-0.1,0c-0.1,0-0.1,0-0.2,0c-0.1,0-0.2,0-0.3,0
				c-0.1,0-0.2,0-0.3,0c-0.1,0-0.1,0-0.2,0c0,0-0.1,0-0.1,0c0,0,0,0,0,0c0,0-0.1,0-0.1,0h-0.1v0c-1.8,0-3.3-1.5-3.3-3.3
				c0-1.3,0.8-2.5,2-3c0.1-0.1,0.3-0.1,0.4-0.1c0,0,0,0,0,0c0.3-0.1,0.6-0.1,0.9-0.1h0c0.3,0,0.6,0,0.9,0.1c0,0,0,0,0,0
				c0.5,0.1,0.9,0.4,1.3,0.7c0.7,0.6,1.1,1.5,1.1,2.5c0,0.7-0.2,1.4-0.6,1.9c1.1,0.2,2.1,0.5,3.1,1l0,0c0.4-0.9,0.7-1.8,0.7-2.9
				c0-0.8-0.1-1.5-0.4-2.2c5.7,1.9,10.2,6.4,12.1,12.1h-7C32.2,14.9,29.9,12.9,27.2,11.7L27.2,11.7z"/>
			<path class="st0" d="M41.2,26.8h-6.6h-3.3h0c-0.9,2.5-2.8,4.4-5.2,5.4c1,0.5,2,1.3,2.7,2.2c2-1.2,3.7-2.9,4.8-5h7
				c-1.7,5.1-5.4,9.2-10.2,11.4c-0.3,1.6-1.1,3.1-2.2,4.3c8.3-2.2,14.7-8.9,16.3-17.4c0.1-0.3,0.1-0.6,0.2-0.9h-1.6H41.2z"/>
		</g>
	</g>
</g>
</svg>
